<svg width="251" height="153" viewBox="0 0 251 153" fill="none" xmlns="http://www.w3.org/2000/svg">
<g clip-path="url(#clip0_3655_134)">
<path d="M2.18251 109.075L27.5508 35.4756L53.7543 35.4756L79.2269 109.075L57.3037 109.075L40.6003 55.9372L24.0013 109.075L2.18251 109.075Z" fill="#161616"/>
<path d="M56.8915 109.075L82.2598 35.4756L108.463 35.4756L133.936 109.075L112.013 109.075L95.3093 55.9372L78.7103 109.075L56.8915 109.075Z" fill="#161616"/>
<path d="M137.337 109.075L162.705 35.4756L188.909 35.4756L214.381 109.075L192.458 109.075L175.755 55.9372L159.156 109.075L137.337 109.075Z" fill="#161616"/>
<path d="M233.781 109.436C230.162 109.436 227.239 108.461 225.012 106.513C222.855 104.494 221.776 101.954 221.776 98.8917C221.776 95.8294 222.855 93.2891 225.012 91.2708C227.239 89.2525 230.162 88.2433 233.781 88.2433C237.331 88.2433 240.184 89.2525 242.342 91.2708C244.569 93.2891 245.683 95.8294 245.683 98.8917C245.683 101.884 244.569 104.39 242.342 106.408C240.184 108.427 237.331 109.436 233.781 109.436Z" fill="#161616"/>
</g>
<defs>
<clipPath id="clip0_3655_134">
<rect width="251" height="152.048" fill="white" transform="translate(0 0.841309)"/>
</clipPath>
</defs>
</svg>
