<svg width="451" height="219" viewBox="0 0 451 219" fill="none" xmlns="http://www.w3.org/2000/svg">
<rect x="67.533" y="101.702" width="382.934" height="116.501" rx="39.467" fill="#1A1818" stroke="#1A1818" stroke-width="1.0659"/>
<rect x="0.53295" y="0.930899" width="253.934" height="116.501" rx="39.467" fill="#1A1818" stroke="#1A1818" stroke-width="1.0659"/>
<path d="M121.72 187.904C118.04 187.904 114.68 187.024 111.64 185.264C108.653 183.504 106.28 181.078 104.52 177.984C102.76 174.838 101.88 171.238 101.88 167.184C101.88 163.024 102.733 159.398 104.44 156.304C106.2 153.158 108.547 150.704 111.48 148.944C114.467 147.184 117.88 146.304 121.72 146.304C125.08 146.304 127.907 146.864 130.2 147.984C132.493 149.051 134.307 150.544 135.64 152.464C136.973 154.331 137.933 156.518 138.52 159.024C139.16 161.531 139.48 164.251 139.48 167.184C139.48 169.371 139.16 171.691 138.52 174.144C137.88 176.544 136.867 178.784 135.48 180.864C134.147 182.944 132.333 184.651 130.04 185.984C127.8 187.264 125.027 187.904 121.72 187.904ZM124.44 180.544C127.427 180.544 129.96 179.984 132.04 178.864C134.173 177.691 135.773 176.091 136.84 174.064C137.96 172.038 138.52 169.744 138.52 167.184C138.52 164.358 137.96 161.958 136.84 159.984C135.72 157.958 134.12 156.384 132.04 155.264C129.96 154.144 127.427 153.584 124.44 153.584C120.173 153.584 116.867 154.864 114.52 157.424C112.173 159.931 111 163.184 111 167.184C111 169.798 111.56 172.118 112.68 174.144C113.853 176.171 115.453 177.744 117.48 178.864C119.507 179.984 121.827 180.544 124.44 180.544ZM138.52 131.184H147.48V187.024H139.16C139.053 185.798 138.92 184.278 138.76 182.464C138.6 180.651 138.52 179.024 138.52 177.584V131.184ZM188.084 173.904H196.644C196.217 176.624 195.15 179.051 193.444 181.184C191.79 183.264 189.524 184.918 186.644 186.144C183.764 187.318 180.324 187.904 176.324 187.904C171.79 187.904 167.737 187.078 164.164 185.424C160.59 183.718 157.79 181.318 155.764 178.224C153.737 175.131 152.724 171.451 152.724 167.184C152.724 162.971 153.71 159.291 155.684 156.144C157.657 152.998 160.377 150.571 163.844 148.864C167.364 147.158 171.417 146.304 176.004 146.304C180.75 146.304 184.697 147.158 187.844 148.864C191.044 150.518 193.417 153.024 194.964 156.384C196.51 159.691 197.15 163.878 196.884 168.944H161.764C162.03 171.184 162.75 173.211 163.924 175.024C165.15 176.784 166.804 178.171 168.884 179.184C170.964 180.144 173.39 180.624 176.164 180.624C179.257 180.624 181.844 180.011 183.924 178.784C186.057 177.558 187.444 175.931 188.084 173.904ZM175.764 153.504C172.137 153.504 169.15 154.411 166.804 156.224C164.457 157.984 162.937 160.251 162.244 163.024H187.924C187.71 160.038 186.51 157.718 184.324 156.064C182.137 154.358 179.284 153.504 175.764 153.504ZM199.044 173.904H207.284C207.71 175.931 208.804 177.584 210.564 178.864C212.324 180.091 214.697 180.704 217.684 180.704C219.604 180.704 221.097 180.491 222.164 180.064C223.284 179.638 224.057 179.051 224.484 178.304C224.964 177.558 225.204 176.704 225.204 175.744C225.204 174.571 224.857 173.664 224.164 173.024C223.524 172.384 222.564 171.851 221.284 171.424C220.004 170.998 218.404 170.624 216.484 170.304C214.51 169.824 212.564 169.291 210.644 168.704C208.724 168.118 206.99 167.398 205.444 166.544C203.897 165.638 202.67 164.518 201.764 163.184C200.91 161.798 200.484 160.118 200.484 158.144C200.484 156.331 200.884 154.704 201.684 153.264C202.537 151.771 203.71 150.518 205.204 149.504C206.697 148.491 208.457 147.718 210.484 147.184C212.51 146.598 214.724 146.304 217.124 146.304C220.59 146.304 223.47 146.864 225.764 147.984C228.11 149.104 229.87 150.678 231.044 152.704C232.27 154.731 232.884 157.051 232.884 159.664H225.044C224.617 157.531 223.79 155.984 222.564 155.024C221.337 154.064 219.497 153.584 217.044 153.584C214.59 153.584 212.724 154.011 211.444 154.864C210.164 155.718 209.524 156.891 209.524 158.384C209.524 159.504 209.924 160.411 210.724 161.104C211.577 161.744 212.777 162.304 214.324 162.784C215.87 163.264 217.684 163.744 219.764 164.224C221.684 164.758 223.497 165.318 225.204 165.904C226.91 166.438 228.43 167.131 229.764 167.984C231.15 168.784 232.244 169.851 233.044 171.184C233.844 172.518 234.244 174.171 234.244 176.144C234.244 178.598 233.577 180.704 232.244 182.464C230.964 184.224 229.097 185.584 226.644 186.544C224.19 187.451 221.23 187.904 217.764 187.904C214.724 187.904 212.084 187.558 209.844 186.864C207.657 186.171 205.817 185.264 204.324 184.144C202.884 183.024 201.764 181.824 200.964 180.544C200.164 179.264 199.604 178.038 199.284 176.864C199.017 175.691 198.937 174.704 199.044 173.904ZM248.688 130.304V138.864H238.048V130.304H248.688ZM238.848 147.184H247.808V187.024H238.848V147.184ZM272.204 180.864C268.471 180.864 265.084 180.198 262.044 178.864C259.058 177.531 256.684 175.584 254.924 173.024C253.218 170.464 252.364 167.398 252.364 163.824C252.364 160.251 253.191 157.158 254.844 154.544C256.551 151.931 258.898 149.904 261.884 148.464C264.924 147.024 268.364 146.304 272.204 146.304C273.324 146.304 274.391 146.384 275.404 146.544C276.471 146.704 277.484 146.918 278.444 147.184L297.084 147.264V154.704C294.524 154.758 291.938 154.411 289.324 153.664C286.764 152.864 284.498 152.038 282.524 151.184L282.284 150.704C284.098 151.611 285.724 152.731 287.164 154.064C288.658 155.344 289.831 156.811 290.684 158.464C291.538 160.118 291.964 161.984 291.964 164.064C291.964 167.584 291.111 170.598 289.404 173.104C287.751 175.611 285.431 177.531 282.444 178.864C279.511 180.198 276.098 180.864 272.204 180.864ZM285.004 203.264V201.424C285.004 198.811 284.231 196.971 282.684 195.904C281.138 194.838 278.978 194.304 276.204 194.304H265.404C263.271 194.304 261.431 194.118 259.884 193.744C258.391 193.424 257.191 192.918 256.284 192.224C255.378 191.584 254.711 190.811 254.284 189.904C253.858 189.051 253.644 188.091 253.644 187.024C253.644 184.891 254.284 183.291 255.564 182.224C256.898 181.158 258.631 180.464 260.764 180.144C262.951 179.824 265.244 179.771 267.644 179.984L272.204 180.864C269.058 180.971 266.658 181.264 265.004 181.744C263.404 182.171 262.604 183.051 262.604 184.384C262.604 185.184 262.924 185.824 263.564 186.304C264.204 186.784 265.111 187.024 266.284 187.024H277.644C280.898 187.024 283.751 187.398 286.204 188.144C288.658 188.944 290.551 190.251 291.884 192.064C293.271 193.931 293.964 196.464 293.964 199.664V203.264H285.004ZM272.204 173.904C274.338 173.904 276.231 173.504 277.884 172.704C279.538 171.904 280.844 170.758 281.804 169.264C282.764 167.771 283.244 165.958 283.244 163.824C283.244 161.691 282.764 159.851 281.804 158.304C280.844 156.758 279.538 155.584 277.884 154.784C276.231 153.984 274.338 153.584 272.204 153.584C270.124 153.584 268.231 153.984 266.524 154.784C264.871 155.584 263.564 156.758 262.604 158.304C261.644 159.798 261.164 161.638 261.164 163.824C261.164 165.958 261.644 167.771 262.604 169.264C263.564 170.758 264.871 171.904 266.524 172.704C268.178 173.504 270.071 173.904 272.204 173.904ZM300.21 147.184H309.09V187.024H300.21V147.184ZM325.89 146.304C328.183 146.304 330.29 146.624 332.21 147.264C334.183 147.904 335.863 148.891 337.25 150.224C338.69 151.504 339.783 153.104 340.53 155.024C341.33 156.944 341.73 159.211 341.73 161.824V187.024H332.85V163.584C332.85 160.331 332.05 157.931 330.45 156.384C328.903 154.784 326.45 153.984 323.09 153.984C320.53 153.984 318.183 154.544 316.05 155.664C313.97 156.731 312.263 158.144 310.93 159.904C309.597 161.611 308.823 163.504 308.61 165.584L308.53 161.264C308.797 159.291 309.383 157.424 310.29 155.664C311.197 153.851 312.397 152.251 313.89 150.864C315.383 149.424 317.143 148.304 319.17 147.504C321.197 146.704 323.437 146.304 325.89 146.304ZM380.818 173.904H389.378C388.951 176.624 387.885 179.051 386.178 181.184C384.525 183.264 382.258 184.918 379.378 186.144C376.498 187.318 373.058 187.904 369.058 187.904C364.525 187.904 360.471 187.078 356.898 185.424C353.325 183.718 350.525 181.318 348.498 178.224C346.471 175.131 345.458 171.451 345.458 167.184C345.458 162.971 346.445 159.291 348.418 156.144C350.391 152.998 353.111 150.571 356.578 148.864C360.098 147.158 364.151 146.304 368.738 146.304C373.485 146.304 377.431 147.158 380.578 148.864C383.778 150.518 386.151 153.024 387.698 156.384C389.245 159.691 389.885 163.878 389.618 168.944H354.498C354.765 171.184 355.485 173.211 356.658 175.024C357.885 176.784 359.538 178.171 361.618 179.184C363.698 180.144 366.125 180.624 368.898 180.624C371.991 180.624 374.578 180.011 376.658 178.784C378.791 177.558 380.178 175.931 380.818 173.904ZM368.498 153.504C364.871 153.504 361.885 154.411 359.538 156.224C357.191 157.984 355.671 160.251 354.978 163.024H380.658C380.445 160.038 379.245 157.718 377.058 156.064C374.871 154.358 372.018 153.504 368.498 153.504ZM393.538 147.184H402.418V187.024H393.538V147.184ZM416.818 154.784C413.938 154.784 411.458 155.398 409.378 156.624C407.351 157.851 405.725 159.344 404.498 161.104C403.271 162.864 402.418 164.571 401.938 166.224L401.858 161.744C401.911 161.158 402.098 160.278 402.418 159.104C402.738 157.878 403.218 156.544 403.858 155.104C404.551 153.664 405.458 152.278 406.578 150.944C407.751 149.558 409.165 148.438 410.818 147.584C412.525 146.731 414.525 146.304 416.818 146.304V154.784Z" fill="#F7F1E0"/>
<path d="M78.48 86.2534H69.6V46.4134H78.48V86.2534ZM70.08 67.2934L70.16 69.8534C70.0533 70.5468 69.8133 71.5868 69.44 72.9734C69.12 74.3601 68.56 75.8801 67.76 77.5334C67.0133 79.1334 66 80.6801 64.72 82.1734C63.4933 83.6134 61.9467 84.8134 60.08 85.7734C58.2133 86.6801 55.9467 87.1334 53.28 87.1334C51.36 87.1334 49.4133 86.8668 47.44 86.3334C45.52 85.8534 43.76 85.0268 42.16 83.8534C40.6133 82.6801 39.36 81.0801 38.4 79.0534C37.44 77.0268 36.96 74.4668 36.96 71.3734V46.4134H45.84V69.6934C45.84 72.2001 46.24 74.1734 47.04 75.6134C47.8933 77.0001 49.0667 77.9868 50.56 78.5734C52.0533 79.1601 53.7867 79.4534 55.76 79.4534C58.5867 79.4534 60.9867 78.8134 62.96 77.5334C64.9333 76.2534 66.5067 74.6801 67.68 72.8134C68.9067 70.8934 69.7067 69.0534 70.08 67.2934ZM124.768 46.4134L106.048 68.4134L91.9681 86.2534H81.0881L100.768 63.0534L113.968 46.4134H124.768ZM81.0881 46.4134H92.0481L106.128 63.0534L125.808 86.2534H114.928L100.368 68.5734L81.0881 46.4134ZM150.011 26.8934L157.451 29.6134L133.531 94.9734L126.251 92.3334L150.011 26.8934ZM202.574 86.2534H193.694V46.4134H202.574V86.2534ZM194.174 67.2934L194.254 69.8534C194.147 70.5468 193.907 71.5868 193.534 72.9734C193.214 74.3601 192.654 75.8801 191.854 77.5334C191.107 79.1334 190.094 80.6801 188.814 82.1734C187.587 83.6134 186.04 84.8134 184.174 85.7734C182.307 86.6801 180.04 87.1334 177.374 87.1334C175.454 87.1334 173.507 86.8668 171.534 86.3334C169.614 85.8534 167.854 85.0268 166.254 83.8534C164.707 82.6801 163.454 81.0801 162.494 79.0534C161.534 77.0268 161.054 74.4668 161.054 71.3734V46.4134H169.934V69.6934C169.934 72.2001 170.334 74.1734 171.134 75.6134C171.987 77.0001 173.16 77.9868 174.654 78.5734C176.147 79.1601 177.88 79.4534 179.854 79.4534C182.68 79.4534 185.08 78.8134 187.054 77.5334C189.027 76.2534 190.6 74.6801 191.774 72.8134C193 70.8934 193.8 69.0534 194.174 67.2934ZM218.782 29.5334V38.0934H208.142V29.5334H218.782ZM208.942 46.4134H217.902V86.2534H208.942V46.4134Z" fill="#F7F1E0"/>
</svg>
